<?xml version="1.0" encoding="UTF-8" standalone="no"?>
<!-- Created with Inkscape (http://www.inkscape.org/) -->

<svg
   xmlns:dc="http://purl.org/dc/elements/1.1/"
   xmlns:cc="http://creativecommons.org/ns#"
   xmlns:rdf="http://www.w3.org/1999/02/22-rdf-syntax-ns#"
   xmlns:svg="http://www.w3.org/2000/svg"
   xmlns="http://www.w3.org/2000/svg"
   version="1.1"
   width="310"
   height="382"
   id="svg3863">
  <defs
     id="defs3865" />
  <metadata
     id="metadata3868">
    <rdf:RDF>
      <cc:Work
         rdf:about="">
        <dc:format>image/svg+xml</dc:format>
        <dc:type
           rdf:resource="http://purl.org/dc/dcmitype/StillImage" />
        <dc:title></dc:title>
      </cc:Work>
    </rdf:RDF>
  </metadata>
  <g
     transform="translate(-217.04724,-335.18109)"
     id="layer1">
    <g
       id="g4434">
      <path
         d="m 219.0625,495.1875 c -0.12317,53.79328 28.37446,102.89473 63.47035,141.82363 26.34322,29.44625 57.26303,54.83968 89.52965,77.70762 52.22101,-37.37543 102.39065,-81.10263 132.36389,-138.85789 14.87805,-28.40867 22.20131,-60.49531 20.63611,-92.70461 0,-48.65625 0,-97.3125 0,-145.96875 -102,0 -204,0 -306,0 0,52.66667 0,105.33333 0,158 z"
         id="path3909"
         style="color:#000000;fill:#ffffff;fill-opacity:1;stroke:none;stroke-width:2;marker:none;visibility:visible;display:inline;overflow:visible;enable-background:accumulate" />
      <g
         transform="translate(217.04724,335.18109)"
         id="g3840"
         style="display:inline">
        <path
           d="M 0,0 0,160 C 0,268.20755 111.1678,350.81746 155,382 198.8322,350.81746 310,268.20755 310,160 L 310,0 0,0 z m 22.96875,20.84375 25.125,0 c 12.439792,0 29.875,0.02713 29.875,17.59375 0,17.56662 -17.480445,17.59375 -29.875,17.59375 0,6.38602 -0.121522,14.449667 3.6875,14.84375 6.834557,0.707107 5.949444,9.186827 0,9.1875 L 26,80.0625 c -5.833632,0 -6.659139,-8.573244 0,-9 4.548511,-0.291495 5.125,-8.490513 5.125,-15.03125 l 0,-16.4375 c 0,-4.949745 -1.792289,-10.625 -8.15625,-10.625 l 0,-8.125 z m 59.9375,0 51.09375,0 0,15.21875 -3.90625,0 c -11.13693,0 -7.02593,-6.03125 -13.9375,-6.03125 l -8.15625,0 0,15.03125 c 11.84404,0 4.59959,-4.0625 13.96875,-4.0625 l 0,15.03125 c -9.36916,0 -2.12471,-4.0625 -13.96875,-4.0625 l 0,19.09375 8.15625,0 c 6.91157,0 2.80057,-6.03125 13.9375,-6.03125 l 3.90625,0 c 0,16.664492 -2.82018,15.03125 -13.25,15.03125 l -37.84375,0 0,-8.125 c 7.247844,0 8.125,-9.365513 8.125,-15.90625 l 0,-16.4375 c 0,-4.949745 -1.761039,-10.625 -8.125,-10.625 l 0,-8.125 z m 62.9375,0 19.96875,0 L 186.25,48.625 c 3.12423,4.24485 3.59375,1.167812 3.59375,-0.59375 0,-2.75 0.72244,-18 -6.5625,-18 -1.73172,0 -3.3388,-1.596061 -3.3125,-3.0625 0.0356,-1.979583 0,-6.125 0,-6.125 l 29.875,0 c 0,0 -0.0356,4.145417 0,6.125 0.0263,1.466439 -1.61203,3.0625 -3.34375,3.0625 -4.78494,0 -4.625,15.25 -4.625,18 l 0,29.84375 c 0,1.342159 -0.85808,2.1875 -2.1875,2.1875 -1.32942,0 -7.71875,0.125 -7.71875,0.125 -4.38235,0 -7.5158,-3.964271 -9.59375,-6.75 -5.5165,-7.395543 -9.74556,-13.280012 -15.3125,-20.84375 l 0,3.4375 c 0,6.540737 0.57648,14.708505 5.125,15 6.65913,0.426756 5.83363,9.03125 0,9.03125 l -23.34375,0 c -5.83363,0 -6.65913,-8.573244 0,-9 C 153.39227,70.771005 154,62.571987 154,56.03125 l 0,-16.4375 c 0,-4.949745 -1.79229,-10.625 -8.15625,-10.625 l 0,-8.125 z m 72.125,0 19.96875,0 20.4375,27.78125 c 3.12423,4.24485 3.59375,1.167812 3.59375,-0.59375 0,-2.75 0.72244,-18 -6.5625,-18 -1.73172,0 -3.3388,-1.596061 -3.3125,-3.0625 0.0356,-1.979583 0,-6.125 0,-6.125 l 29.875,0 c 0,0 -0.0356,4.145417 0,6.125 0.0263,1.466439 -1.61203,3.0625 -3.34375,3.0625 -4.78494,0 -4.625,15.25 -4.625,18 l 0,29.84375 c 0,1.342159 -0.85808,2.1875 -2.1875,2.1875 -1.32942,0 -7.71875,0.125 -7.71875,0.125 -4.38235,0 -7.5158,-3.964271 -9.59375,-6.75 -5.5165,-7.395543 -9.74556,-13.280012 -15.3125,-20.84375 l 0,3.4375 c 0,6.540737 0.57648,14.708505 5.125,15 6.65913,0.426756 5.83363,9.03125 0,9.03125 l -23.34375,0 c -5.83363,0 -6.65913,-8.573244 0,-9 4.54852,-0.291495 5.15625,-8.490513 5.15625,-15.03125 l 0,-16.4375 c 0,-4.949745 -1.79229,-10.625 -8.15625,-10.625 l 0,-8.125 z M 49.78125,30.8125 c -1.027514,7.7e-4 -1.6875,0.09375 -1.6875,0.09375 l 0,15.03125 c 0,0 10.9375,1.525519 10.9375,-7.5 0,-6.769139 -6.167457,-7.6273 -9.25,-7.625 z m -33.875,81.0625 278.1875,0 0,38.90625 C 294.09375,248.27817 219.94172,309.00627 155,361.5 90.05828,309.00627 15.90625,248.27817 15.90625,150.78125 l 0,-38.90625 z"
           id="path3822"
           style="color:#000000;fill:#003380;fill-opacity:1;stroke:none;stroke-width:2;marker:none;visibility:visible;display:inline;overflow:visible;enable-background:accumulate" />
        <path
           d="m 152.09375,130.875 -20.53125,25.34375 c 1.16612,2.56235 1.60792,5.46883 1.5625,8.15625 -0.1142,6.75726 -3.19517,15.5625 -13.625,15.5625 l -7.1875,0 -35.0625,43.25 0,0.0625 c 0,9.93911 -6.338874,17.84375 -16.4375,17.84375 l 0,17.15625 66.28125,0 0,-17.15625 c -10.98647,0 -17.5,-7.91901 -17.5,-17.84375 l 0,-23.34375 c 45.45114,0 55.78398,-16.73208 55.6875,-39.40625 -0.0526,-12.35016 -3.09265,-22.72992 -13.1875,-29.625 z"
           id="path3828"
           style="color:#000000;fill:#003380;fill-opacity:1;stroke:none;stroke-width:2;marker:none;visibility:visible;display:inline;overflow:visible;enable-background:accumulate" />
        <path
           d="m 205.9375,182.5625 -28.09375,34.53125 0,6.15625 c 0,9.81775 -3.20066,17.84375 -13.78125,17.84375 l 0,17.15625 86.78125,0 16.96875,-46.84375 -10.78125,-7.59375 c -7.95495,12.9047 -20.59079,37.28125 -41.71875,37.28125 -8.97139,0 -9.375,-4.63277 -9.375,-7.59375 l 0,-50.9375 z"
           id="path3830"
           style="color:#000000;fill:#003380;fill-opacity:1;stroke:none;stroke-width:2;marker:none;visibility:visible;display:inline;overflow:visible;enable-background:accumulate" />
        <path
           d="m 60.8125,121.78125 0,19.4375 c 11.967425,0 16.4375,5.30486 16.4375,12.90625 l 0,67.15625 32.34375,-45.34375 0,-27.09375 9.90625,0 c 3.27938,0 5.85687,0.84714 7.84375,2.21875 l 17.21875,-24.125 c -8.27213,-3.30867 -19.5907,-5.15625 -34.96875,-5.15625 l -48.78125,0 z"
           id="path3832"
           style="color:#000000;fill:#aa0000;fill-opacity:1;stroke:none;stroke-width:2;marker:none;visibility:visible;display:inline;overflow:visible;enable-background:accumulate" />
        <path
           d="m 164.0625,121.78125 0,19.4375 c 13.64189,0 13.78125,7.98287 13.78125,12.90625 l 0,60.15625 28.09375,-38.03125 0,-22.125 c 0,-7.68579 0.83447,-12.90625 14.15625,-12.90625 l 0,-19.4375 -56.03125,0 z"
           id="path3834"
           style="color:#000000;fill:#aa0000;fill-opacity:1;stroke:none;stroke-width:2;marker:none;visibility:visible;display:inline;overflow:visible;enable-background:accumulate" />
      </g>
    </g>
  </g>
</svg>
